<svg width="27" height="17" viewBox="0 0 27 17" fill="none" xmlns="http://www.w3.org/2000/svg">
<path d="M3.6125 14.32C3.50583 14.32 3.38583 14.2533 3.2525 14.12C3.23917 14.1067 3.11917 13.9933 2.8925 13.78C2.67917 13.5533 2.4125 13.2733 2.0925 12.94C1.78583 12.5933 1.47917 12.2333 1.1725 11.86C0.865833 11.4733 0.605833 11.1067 0.3925 10.76C0.1925 10.4133 0.0925 10.1333 0.0925 9.92C0.0925 9.74667 0.185833 9.54 0.3725 9.3C0.5725 9.04667 0.819167 8.78667 1.1125 8.52C1.40583 8.25333 1.70583 8 2.0125 7.76C2.31917 7.50667 2.5925 7.28667 2.8325 7.1C3.08583 6.91333 3.25917 6.77333 3.3525 6.68C3.52583 6.53333 3.6725 6.42667 3.7925 6.36C3.92583 6.29333 4.0325 6.26 4.1125 6.26C4.29917 6.26 4.3925 6.35333 4.3925 6.54C4.3925 6.67333 4.32583 6.80667 4.1925 6.94C3.9925 7.11333 3.7125 7.34667 3.3525 7.64C3.00583 7.93333 2.64583 8.24667 2.2725 8.58C1.9125 8.91333 1.60583 9.23333 1.3525 9.54C1.09917 9.83333 0.9725 10.0667 0.9725 10.24C0.9725 10.3333 1.05917 10.5133 1.2325 10.78C1.41917 11.0333 1.63917 11.3333 1.8925 11.68C2.15917 12.0133 2.42583 12.3467 2.6925 12.68C2.95917 13 3.18583 13.2733 3.3725 13.5C3.55917 13.7267 3.65917 13.8533 3.6725 13.88C3.73917 14.0133 3.7725 14.1067 3.7725 14.16C3.7725 14.2667 3.71917 14.32 3.6125 14.32ZM17.7381 16.04C16.9915 16.04 16.4248 15.8 16.0381 15.32C15.6648 14.8267 15.4115 13.9133 15.2781 12.58C15.1981 11.8867 15.1181 10.9867 15.0381 9.88C14.1048 10.16 13.1648 10.4533 12.2181 10.76L11.5381 12.64C11.4048 13 11.3115 13.26 11.2581 13.42C11.2048 13.5667 11.1048 13.7933 10.9581 14.1C10.8248 14.4067 10.7048 14.6333 10.5981 14.78C10.5048 14.9133 10.3648 15.0867 10.1781 15.3C10.0048 15.5133 9.82479 15.6667 9.63813 15.76C9.15813 16 8.64479 16.12 8.09813 16.12C7.55146 16.12 7.10479 15.9267 6.75813 15.54C6.42479 15.14 6.25813 14.6533 6.25813 14.08C6.25813 13.92 6.27146 13.7533 6.29813 13.58C6.47146 12.3 7.78479 11.1333 10.2381 10.08C10.9315 8.30667 12.0848 5.32 13.6981 1.12C14.1248 0.88 14.6648 0.76 15.3181 0.76C15.4648 0.76 15.6048 0.76 15.7381 0.76C15.8715 0.76 16.0315 0.76 16.2181 0.76C16.4181 0.76 16.6648 0.799999 16.9581 0.879999C16.9715 1.50667 17.2781 5.39333 17.8781 12.54C17.9315 13.14 18.0048 13.5333 18.0981 13.72C18.1915 13.8933 18.3515 13.98 18.5781 13.98C18.9515 13.98 19.4448 13.7267 20.0581 13.22C20.6848 12.7133 21.2448 12.08 21.7381 11.32L22.2981 12.68L21.8181 13.32C20.4181 15.1333 19.0581 16.04 17.7381 16.04ZM14.5581 4.24L12.8181 9.1C13.7515 8.78 14.4448 8.54667 14.8981 8.4L14.5581 4.24ZM9.53813 11.82C8.29813 12.4467 7.67813 13.06 7.67813 13.66C7.67813 14.0867 7.83813 14.3 8.15813 14.3C8.39813 14.3 8.59146 14.1267 8.73813 13.78C8.91146 13.4067 9.17813 12.7533 9.53813 11.82ZM22.0555 15.4C21.8688 15.4 21.7755 15.3067 21.7755 15.12C21.7755 14.9867 21.8421 14.8533 21.9755 14.72C22.1755 14.5467 22.4488 14.3133 22.7955 14.02C23.1555 13.7133 23.5155 13.3933 23.8755 13.06C24.2488 12.7267 24.5621 12.4133 24.8155 12.12C25.0688 11.8267 25.1955 11.5933 25.1955 11.42C25.1955 11.3267 25.1021 11.1533 24.9155 10.9C24.7421 10.6333 24.5221 10.3333 24.2555 10C24.0021 9.65333 23.7421 9.32 23.4755 9C23.2088 8.66667 22.9821 8.38667 22.7955 8.16C22.6088 7.93333 22.5088 7.80667 22.4955 7.78C22.4288 7.64667 22.3955 7.55333 22.3955 7.5C22.3955 7.39333 22.4488 7.34 22.5555 7.34C22.6621 7.34 22.7821 7.40667 22.9155 7.54C22.9288 7.55333 23.0421 7.67333 23.2555 7.9C23.4821 8.11333 23.7488 8.39333 24.0555 8.74C24.3755 9.07333 24.6888 9.43333 24.9955 9.82C25.3021 10.1933 25.5555 10.5533 25.7555 10.9C25.9688 11.2333 26.0755 11.5133 26.0755 11.74C26.0755 11.9133 25.9755 12.1267 25.7755 12.38C25.5888 12.62 25.3488 12.8733 25.0555 13.14C24.7621 13.4067 24.4621 13.6667 24.1555 13.92C23.8488 14.16 23.5688 14.3733 23.3155 14.56C23.0755 14.7467 22.9088 14.8867 22.8155 14.98C22.6421 15.1267 22.4888 15.2333 22.3555 15.3C22.2355 15.3667 22.1355 15.4 22.0555 15.4Z" fill="url(#paint0_angular_67_683)"/>
<defs>
<radialGradient id="paint0_angular_67_683" cx="0" cy="0" r="1" gradientUnits="userSpaceOnUse" gradientTransform="translate(13 10) rotate(90) scale(14 15)">
<stop stop-color="#FF4305"/>
<stop offset="1" stop-color="#F58700"/>
</radialGradient>
</defs>
</svg>
